<?xml version="1.0" encoding="UTF-8"?>
<svg xmlns="http://www.w3.org/2000/svg" width="600" height="450" viewBox="0 0 600 450" preserveAspectRatio="xMidYMid meet">
  <g transform="translate(0,450) scale(0.1,-0.1)" fill="#000000" stroke="none">
    <path d="M2850 4180 l0 -170 30 0 29 0 3 128 3 127 73 -127 73 -128 45 0 44 0 0 170 0 170 -35 0 -34 0 -3 -122 -3 -123 -68 123 -69 122 -44 0 -44 0 0 -170z"/>
    <path d="M2986 3813 c-3 -10 -28 -106 -55 -213 -28 -107 -71 -276 -97 -375 -25 -99 -50 -196 -54 -215 -11 -48 -71 -275 -74 -277 -1 -1 -42 21 -91 48 -50 28 -112 63 -140 78 -27 16 -94 54 -149 85 -54 31 -100 56 -101 56 -2 0 -63 34 -135 76 -73 41 -134 73 -136 71 -4 -4 80 -140 192 -314 19 -29 50 -79 71 -110 58 -92 97 -154 136 -215 21 -32 37 -62 37 -67 0 -5 -24 -14 -52 -21 -109 -25 -428 -102 -558 -134 -74 -19 -206 -51 -293 -71 -87 -21 -156 -39 -155 -40 4 -4 229 -64 428 -115 91 -23 185 -48 210 -55 25 -8 137 -37 250 -65 113 -29 208 -54 212 -56 6 -4 -27 -67 -122 -234 -23 -41 -57 -102 -75 -135 -18 -33 -75 -134 -127 -225 -52 -91 -93 -167 -92 -169 3 -3 54 27 135 79 21 14 69 44 106 68 37 24 95 61 128 82 33 21 83 52 110 70 28 17 92 57 143 90 60 39 94 55 97 47 4 -12 51 -204 135 -552 71 -292 120 -489 125 -493 2 -2 9 16 15 39 6 24 22 86 36 137 25 94 32 120 124 477 91 354 111 430 118 437 4 4 130 -62 280 -147 150 -85 296 -167 325 -183 28 -16 76 -43 105 -60 28 -17 52 -29 52 -25 0 6 -37 66 -116 188 -17 28 -64 102 -104 165 -73 117 -100 158 -183 287 -26 40 -47 75 -47 77 0 2 51 16 113 31 61 15 238 57 392 95 154 37 342 83 417 101 76 18 134 36 130 40 -4 3 -72 23 -152 43 -80 21 -201 53 -270 71 -69 19 -224 59 -345 90 -243 62 -325 85 -325 90 0 2 27 52 60 111 33 59 60 109 60 111 0 1 16 27 35 58 20 30 39 63 42 73 4 9 19 37 33 62 72 121 192 341 189 345 -2 2 -92 -53 -199 -122 -378 -244 -504 -323 -517 -323 -7 0 -13 10 -13 21 0 12 -22 112 -49 223 -28 110 -66 269 -86 351 -90 376 -110 455 -117 455 -4 0 -9 -8 -12 -17z m63 -228 c17 -71 39 -157 47 -190 9 -33 26 -107 40 -165 13 -58 40 -170 60 -250 19 -80 37 -154 40 -165 10 -45 65 -261 70 -278 4 -12 -19 -42 -73 -100 -43 -45 -109 -117 -147 -159 -38 -43 -73 -78 -78 -78 -10 0 -11 1042 -1 1323 3 109 7 196 8 195 2 -2 17 -61 34 -133z m825 -522 c-20 -38 -53 -97 -72 -133 -20 -36 -46 -82 -59 -102 -13 -21 -23 -40 -23 -42 0 -3 -22 -43 -48 -88 -27 -46 -65 -113 -86 -150 -20 -37 -40 -69 -44 -72 -8 -5 -36 2 -165 35 l-38 10 42 47 c23 26 83 90 133 143 50 52 138 147 197 210 169 183 193 209 197 209 2 0 -13 -30 -34 -67z m-1788 -2 c5 -4 38 -24 74 -43 50 -27 527 -295 537 -302 3 -3 -33 -147 -44 -175 -10 -25 -11 -24 -89 49 -43 41 -142 133 -219 204 -218 204 -291 276 -279 276 5 0 14 -4 20 -9z m686 -691 c62 -59 133 -125 158 -148 l45 -41 -760 -1 c-466 0 -755 4 -750 9 6 5 60 21 120 36 245 57 415 99 505 122 52 13 111 28 130 32 173 40 276 64 335 80 39 11 78 19 87 18 9 -1 68 -49 130 -107z m1603 -259 c-208 -52 -475 -117 -740 -181 -93 -22 -197 -47 -229 -55 l-59 -14 -91 83 c-50 46 -122 113 -161 149 l-70 66 770 0 770 -1 -190 -47z m-1386 -748 l0 -778 -28 110 c-47 184 -81 324 -111 450 -43 181 -95 396 -130 533 -16 67 -30 129 -30 137 0 12 285 325 296 325 2 0 4 -350 3 -777z m-448 488 c123 -30 122 -26 38 -117 -40 -43 -79 -86 -88 -95 -9 -9 -68 -71 -131 -139 -200 -215 -270 -286 -264 -265 4 11 11 25 16 32 5 6 28 46 52 90 38 69 271 486 283 506 6 10 7 9 94 -12z m891 -98 c79 -76 69 -66 233 -218 66 -60 158 -148 205 -194 l85 -83 -55 30 c-117 63 -168 92 -253 141 -49 28 -90 51 -92 51 -2 0 -36 19 -77 43 -40 23 -89 51 -109 61 -74 38 -74 39 -60 103 19 86 35 133 44 133 5 0 41 -30 79 -67z"/>
    <path d="M1457 3563 c-4 -3 -7 -64 -7 -135 0 -107 2 -128 15 -128 12 0 15 19 15 113 l0 112 31 -50 c86 -143 106 -170 128 -173 21 -3 22 -3 19 130 -4 162 -21 179 -28 28 l-5 -105 -62 95 c-82 125 -88 132 -106 113z"/>
    <path d="M1790 3562 c-75 -33 -102 -116 -64 -195 41 -86 176 -90 219 -7 18 35 19 116 2 150 -22 45 -109 73 -157 52z m106 -45 c20 -18 28 -35 32 -75 4 -47 2 -54 -26 -82 -40 -40 -92 -42 -127 -4 -36 39 -36 124 0 159 32 33 84 33 121 2z"/>
    <path d="M4087 3564 c-4 -4 -7 -65 -7 -136 0 -107 2 -128 15 -128 12 0 15 19 15 107 0 66 4 103 9 98 5 -6 36 -53 69 -105 41 -65 66 -95 78 -95 18 0 19 10 19 128 0 158 -18 177 -25 27 l-5 -105 -70 105 c-68 101 -84 118 -98 104z"/>
    <path d="M4356 3563 c-3 -4 -6 -64 -6 -135 l0 -128 105 0 c85 0 105 3 105 15 0 11 -18 15 -82 17 l-83 3 0 45 0 45 73 3 c96 4 93 22 -4 22 l-75 0 3 43 3 42 78 3 c56 2 77 6 74 15 -4 13 -179 22 -191 10z"/>
    <path d="M4834 2357 c-2 -7 -3 -85 -2 -172 l3 -160 138 -3 137 -3 0 31 0 30 -99 0 -99 0 -4 34 c-6 54 -4 56 93 56 88 0 89 0 89 25 0 25 -1 25 -90 25 l-90 0 0 45 0 45 95 0 95 0 0 30 0 30 -130 0 c-98 0 -132 -3 -136 -13z"/>
    <path d="M960 2317 c-52 -34 -74 -80 -74 -152 0 -69 20 -114 67 -149 23 -17 43 -21 102 -21 87 0 117 17 153 86 19 36 23 54 19 103 -6 65 -25 98 -77 134 -47 31 -143 31 -190 -1z m135 -41 c43 -18 58 -47 59 -113 1 -111 -99 -162 -170 -86 -20 22 -24 36 -24 87 0 67 17 98 60 115 34 13 36 13 75 -3z"/>
    <path d="M1499 1025 c-60 -33 -41 -106 33 -125 79 -20 98 -31 98 -56 0 -45 -92 -62 -130 -24 -22 22 -36 25 -45 10 -3 -5 5 -21 19 -35 47 -47 176 -27 190 29 11 46 -12 75 -73 92 -71 19 -85 27 -90 49 -8 44 76 61 116 23 18 -17 26 -19 35 -10 10 10 7 17 -9 33 -27 28 -107 36 -144 14z"/>
    <path d="M1775 1030 c-11 -4 -31 -19 -44 -33 -20 -22 -24 -37 -24 -93 -1 -64 1 -68 36 -100 32 -29 44 -34 88 -34 45 0 55 4 85 34 32 32 34 39 34 98 0 43 -5 71 -16 87 -30 42 -108 62 -159 41z m116 -49 c23 -24 29 -38 29 -74 0 -87 -66 -130 -140 -92 -30 16 -38 31 -42 81 -7 97 87 150 153 85z"/>
    <path d="M4143 1033 c-25 -5 -53 -39 -53 -64 0 -33 35 -59 100 -77 55 -15 66 -21 68 -42 8 -50 -81 -69 -132 -29 -39 31 -58 10 -23 -25 21 -21 36 -26 76 -26 64 0 93 11 110 43 11 21 12 32 1 56 -12 30 -30 39 -105 56 -38 8 -55 23 -55 46 0 39 79 53 115 19 29 -27 53 -12 28 19 -19 23 -81 35 -130 24z"/>
    <path d="M4349 1003 c0 -16 -2 -66 -4 -113 -5 -126 -11 -120 106 -120 80 0 99 3 99 15 0 11 -18 15 -82 17 l-83 3 -3 43 -3 42 75 0 c61 0 76 3 76 15 0 12 -15 15 -76 15 l-75 0 3 43 3 42 78 3 c110 4 96 22 -18 22 l-95 0 -1 -27z"/>
    <path d="M2908 375 c-33 -18 -52 -72 -39 -108 13 -34 45 -54 117 -73 94 -24 120 -69 53 -93 -40 -14 -87 -3 -105 23 -11 17 -21 21 -49 18 -39 -5 -43 -16 -19 -51 23 -32 73 -51 136 -51 101 0 160 54 142 129 -10 40 -37 57 -139 88 -62 19 -79 39 -55 68 19 23 86 19 104 -6 12 -18 21 -20 50 -15 44 8 45 19 7 57 -27 27 -35 29 -103 29 -44 -1 -84 -7 -100 -15z"/>
  </g>
</svg>
